<?xml version="1.0" encoding="utf-8"?>
<?xml-stylesheet type="text/xsl" href="rss1.xsl"?>
<rss version="2.0" xmlns:atom="http://www.w3.org/2005/Atom" xmlns:content="http://purl.org/rss/1.0/modules/content/" xmlns:dc="http://purl.org/dc/elements/1.1/" xmlns:media="http://search.yahoo.com/mrss/">
<channel>
 <title>sharemania</title>
 <link>http://www.sharemania.us/</link>
 <atom:link href="http://www.gettyimg.com/" rel="self" type="application/rss+xml" />

 
                <item>
                <title><![CDATA[【HD Live Performances】HDTV - Marti Pellow - BBC Radio Two in the Park 2025 HDTV 720p AAC]]></title>
                <link><![CDATA[https://sharemania.us/threads/marti-pellow-bbc-radio-two-in-the-park-2025-hdtv-720p-aac.283497/]]></link>
                <description><![CDATA[<article>
				<blockquote class="messageText SelectQuoteContainer ugc baseHtml">
					
					<a href="https://imgbox.com/J3JmLJl2" target="_blank" class="externalLink" rel="nofollow"><img src="https://images2.imgbox.com/8f/ee/J3JmLJl2_o.jpeg" class="bbCodeImage LbImage" alt="[​IMG]" data-url="https://images2.imgbox.com/8f/ee/J3JmLJl2_o.jpeg"></a><br>
<br>
Losslessly cut from the bbc iplayer stream of this festival.<br>
<br>
If the 1080p version appears on iPlayer i'll upload that too (though the bitrate is the same so the quality will be almost identical). That version may include more of the sets.<br>
<br>


<div class="bbCodeBlock bbCodeCode">
	<div class="type">Code:</div>
	<pre>General
Complete name               : C:\Users\\Marti Pellow.mp4
Format                      : MPEG-4
Format profile              : Base Media
Codec ID                    : isom (isom/iso2/avc1/mp41)
File size                   : 1.20 GiB
Duration                    : 33 min 19 s
Overall bit rate mode       : Constant
Overall bit rate            : 5 168 kb/s
Frame rate                  : 50.000 FPS
Writing application         : Lavf60.3.100

Video
ID                          : 1
Format                      : AVC
Format/Info                 : Advanced Video Codec
Format profile              : High@L3.2
Format settings             : CABAC / 2 Ref Frames
Format settings, CABAC      : Yes
Format settings, Reference  : 2 frames
Codec ID                    : avc1
Codec ID/Info               : Advanced Video Coding
Duration                    : 33 min 19 s
Source duration             : 33 min 19 s
Bit rate mode               : Constant
Bit rate                    : 5 068 kb/s
Width                       : 1 280 pixels
Height                      : 720 pixels
Display aspect ratio        : 16:9
Frame rate mode             : Constant
Frame rate                  : 50.000 FPS
Color space                 : YUV
Chroma subsampling          : 4:2:0
Bit depth                   : 8 bits
Scan type                   : Progressive
Bits/(Pixel*Frame)          : 0.110
Time code of first frame    : 14:01:59:02
Stream size                 : 1.13 GiB (94%)
Source stream size          : 1.18 GiB (98%)
Title                       : aaaaaaaaaaaaaaaaa
Writing library             : Elemental H.264
Color range                 : Limited
Color primaries             : BT.709
Transfer characteristics    : BT.709
Matrix coefficients         : BT.709
mdhd_Duration               : 1999540
Codec configuration box     : avcC

Audio
ID                          : 2
Format                      : AAC LC SBR
Format/Info                 : Advanced Audio Codec Low Complexity with Spectral Band Replication
Commercial name             : HE-AAC
Format settings             : Explicit
Codec ID                    : mp4a-40-2
Duration                    : 33 min 19 s
Bit rate mode               : Constant
Bit rate                    : 96.0 kb/s
Channel(s)                  : 2 channels
Channel layout              : L R
Sampling rate               : 48.0 kHz
Frame rate                  : 23.438 FPS (2048 SPF)
Compression mode            : Lossy
Stream size                 : 22.6 MiB (2%)
Title                       : aaaaaaaaaaaaaaaaa
Language                    : English
Default                     : Yes
Alternate group             : 1





<div class="bbCodeBlock bbCodeVfcHH HiddenContent">
	<div class="attribution type">Hidden Content:</div>
	<blockquote>You must either reply or click 'Like' to see the hidden information contained here.</blockquote>
</div></pre>
</div>
					<div class="messageTextEndMarker">&nbsp;</div>
				</blockquote>
			</article>]]></description>
                <author><![CDATA[ReliantRobin]]></author>
                </item>

                </channel></rss>